<svg width="32" height="32" viewBox="0 0 32 32" fill="none" xmlns="http://www.w3.org/2000/svg">
<circle cx="16" cy="16" r="16" fill="#FFAEAD"/>
<path d="M9.75625 17.95C9.19375 17.95 8.71875 17.7549 8.33125 17.3648C7.94375 16.9747 7.75 16.501 7.75 15.9437C7.75 15.3865 7.94505 14.9128 8.33515 14.5226C8.72526 14.1325 9.19896 13.9375 9.75625 13.9375V11.6312C9.75625 11.3312 9.86875 11.0687 10.0938 10.8437C10.3188 10.6187 10.5813 10.5062 10.8813 10.5062H13.9938C13.9938 9.94375 14.1888 9.46875 14.5789 9.08125C14.969 8.69375 15.4427 8.5 16 8.5C16.5573 8.5 17.031 8.69505 17.4211 9.08515C17.8112 9.47526 18.0063 9.94896 18.0063 10.5062H21.1188C21.4188 10.5062 21.6813 10.6187 21.9063 10.8437C22.1313 11.0687 22.2438 11.3312 22.2438 11.6312V13.9375C22.8063 13.9375 23.2813 14.1325 23.6688 14.5226C24.0563 14.9128 24.25 15.3865 24.25 15.9437C24.25 16.501 24.055 16.9747 23.6649 17.3648C23.2747 17.7549 22.801 17.95 22.2438 17.95V21.625C22.2438 21.925 22.1313 22.1875 21.9063 22.4125C21.6813 22.6375 21.4188 22.75 21.1188 22.75H10.8813C10.5813 22.75 10.3188 22.6375 10.0938 22.4125C9.86875 22.1875 9.75625 21.925 9.75625 21.625V17.95ZM13.4357 16.075C13.6452 16.075 13.8219 16.0017 13.9656 15.855C14.1094 15.7083 14.1813 15.5301 14.1813 15.3206C14.1813 15.111 14.1079 14.9344 13.9612 14.7906C13.8145 14.6469 13.6364 14.575 13.4268 14.575C13.2173 14.575 13.0406 14.6483 12.8969 14.795C12.7531 14.9417 12.6813 15.1199 12.6813 15.3294C12.6813 15.539 12.7546 15.7156 12.9013 15.8594C13.048 16.0031 13.2261 16.075 13.4357 16.075ZM18.5732 16.075C18.7827 16.075 18.9594 16.0017 19.1031 15.855C19.2469 15.7083 19.3188 15.5301 19.3188 15.3206C19.3188 15.111 19.2454 14.9344 19.0987 14.7906C18.952 14.6469 18.7739 14.575 18.5643 14.575C18.3548 14.575 18.1781 14.6483 18.0344 14.795C17.8906 14.9417 17.8188 15.1199 17.8188 15.3294C17.8188 15.539 17.8921 15.7156 18.0388 15.8594C18.1855 16.0031 18.3636 16.075 18.5732 16.075ZM12.85 19.6562H19.15V18.5312H12.85V19.6562ZM10.8813 21.625H21.1188V11.6312H10.8813V21.625Z" fill="black"/>
</svg>
