<svg width="18" height="18" viewBox="0 0 18 18" fill="none" xmlns="http://www.w3.org/2000/svg">
<path d="M3 15.75V11.625C3 11.3156 3.11016 11.0508 3.33047 10.8305C3.55078 10.6102 3.81563 10.5 4.125 10.5H13.875C14.1844 10.5 14.4492 10.6102 14.6695 10.8305C14.8898 11.0508 15 11.3156 15 11.625V15.75H3ZM6.75 9.75C5.7125 9.75 4.82813 9.38438 4.09688 8.65313C3.36563 7.92188 3 7.0375 3 6C3 4.9625 3.36563 4.07813 4.09688 3.34688C4.82813 2.61563 5.7125 2.25 6.75 2.25H11.25C12.2875 2.25 13.1719 2.61563 13.9031 3.34688C14.6344 4.07813 15 4.9625 15 6C15 7.0375 14.6344 7.92188 13.9031 8.65313C13.1719 9.38438 12.2875 9.75 11.25 9.75H6.75ZM4.125 14.625H13.875V11.625H4.125V14.625ZM6.75 8.625H11.25C11.9792 8.625 12.599 8.37022 13.1094 7.86066C13.6198 7.35111 13.875 6.73236 13.875 6.00441C13.875 5.27647 13.6198 4.65625 13.1094 4.14375C12.599 3.63125 11.9792 3.375 11.25 3.375H6.75C6.02084 3.375 5.40104 3.62978 4.89062 4.13934C4.38021 4.64889 4.125 5.26764 4.125 5.99559C4.125 6.72353 4.38021 7.34375 4.89062 7.85625C5.40104 8.36875 6.02084 8.625 6.75 8.625ZM6.75328 6.5625C6.91359 6.5625 7.04688 6.50828 7.15313 6.39984C7.25938 6.29139 7.3125 6.15702 7.3125 5.99672C7.3125 5.83641 7.25828 5.70313 7.14984 5.59688C7.04139 5.49063 6.90702 5.4375 6.74672 5.4375C6.58641 5.4375 6.45313 5.49172 6.34688 5.60016C6.24063 5.70861 6.1875 5.84298 6.1875 6.00328C6.1875 6.16359 6.24172 6.29688 6.35016 6.40313C6.45861 6.50938 6.59298 6.5625 6.75328 6.5625ZM11.2533 6.5625C11.4136 6.5625 11.5469 6.50828 11.6531 6.39984C11.7594 6.29139 11.8125 6.15702 11.8125 5.99672C11.8125 5.83641 11.7583 5.70313 11.6498 5.59688C11.5414 5.49063 11.407 5.4375 11.2467 5.4375C11.0864 5.4375 10.9531 5.49172 10.8469 5.60016C10.7406 5.70861 10.6875 5.84298 10.6875 6.00328C10.6875 6.16359 10.7417 6.29688 10.8502 6.40313C10.9586 6.50938 11.093 6.5625 11.2533 6.5625Z" fill="black"/>
</svg>
