<svg width="18" height="18" viewBox="0 0 18 18" fill="none" xmlns="http://www.w3.org/2000/svg">
<path d="M2.75625 10.95C2.19375 10.95 1.71875 10.7549 1.33125 10.3648C0.94375 9.97474 0.75 9.50104 0.75 8.94375C0.75 8.38646 0.94505 7.91276 1.33515 7.52265C1.72526 7.13255 2.19896 6.9375 2.75625 6.9375V4.63125C2.75625 4.33125 2.86875 4.06875 3.09375 3.84375C3.31875 3.61875 3.58125 3.50625 3.88125 3.50625H6.99375C6.99375 2.94375 7.1888 2.46875 7.5789 2.08125C7.96901 1.69375 8.44271 1.5 9 1.5C9.55729 1.5 10.031 1.69505 10.4211 2.08515C10.8112 2.47526 11.0063 2.94896 11.0063 3.50625H14.1188C14.4188 3.50625 14.6813 3.61875 14.9063 3.84375C15.1313 4.06875 15.2438 4.33125 15.2438 4.63125V6.9375C15.8063 6.9375 16.2813 7.13255 16.6688 7.52265C17.0563 7.91276 17.25 8.38646 17.25 8.94375C17.25 9.50104 17.055 9.97474 16.6649 10.3648C16.2747 10.7549 15.801 10.95 15.2438 10.95V14.625C15.2438 14.925 15.1313 15.1875 14.9063 15.4125C14.6813 15.6375 14.4188 15.75 14.1188 15.75H3.88125C3.58125 15.75 3.31875 15.6375 3.09375 15.4125C2.86875 15.1875 2.75625 14.925 2.75625 14.625V10.95ZM6.43566 9.075C6.64522 9.075 6.82188 9.00166 6.96563 8.85497C7.10938 8.70827 7.18125 8.53014 7.18125 8.32059C7.18125 8.11103 7.10791 7.93437 6.96122 7.79062C6.81452 7.64687 6.63639 7.575 6.42684 7.575C6.21728 7.575 6.04063 7.64834 5.89688 7.79503C5.75313 7.94173 5.68125 8.11986 5.68125 8.32941C5.68125 8.53897 5.75459 8.71562 5.90128 8.85937C6.04798 9.00312 6.22611 9.075 6.43566 9.075ZM11.5732 9.075C11.7827 9.075 11.9594 9.00166 12.1031 8.85497C12.2469 8.70827 12.3188 8.53014 12.3188 8.32059C12.3188 8.11103 12.2454 7.93437 12.0987 7.79062C11.952 7.64687 11.7739 7.575 11.5643 7.575C11.3548 7.575 11.1781 7.64834 11.0344 7.79503C10.8906 7.94173 10.8188 8.11986 10.8188 8.32941C10.8188 8.53897 10.8921 8.71562 11.0388 8.85937C11.1855 9.00312 11.3636 9.075 11.5732 9.075ZM5.85 12.6562H12.15V11.5312H5.85V12.6562ZM3.88125 14.625H14.1188V4.63125H3.88125V14.625Z" fill="black"/>
</svg>
